HIERARCHY
ROOT Hips
{
	OFFSET	0.00	0.00	0.00
	CHANNELS 6 Xposition Yposition Zposition Zrotation Xrotation Yrotation
	JOINT LeftUpLeg
	{
		OFFSET	 0.126116	-0.014019	-0.065224
		CHANNELS 3 Zrotation Xrotation Yrotation
		JOINT LeftLeg
		{
			OFFSET	 0.000000	 0.000000	 0.569914
			CHANNELS 3 Zrotation Xrotation Yrotation
			JOINT LeftFoot
			{
				OFFSET	 0.000000	 0.000000	 0.544423
				CHANNELS 3 Zrotation Xrotation Yrotation
				JOINT LeftToeBase
				{
					OFFSET	 0.000000	 0.000000	 0.207117
					CHANNELS 3 Zrotation Xrotation Yrotation
					End Site
					{
						OFFSET	 0.000000	 0.000000	 0.207117
					}
				}
			}
		}
	}
	JOINT RightUpLeg
	{
		OFFSET	-0.124023	-0.008373	-0.065224
		CHANNELS 3 Zrotation Xrotation Yrotation
		JOINT RightLeg
		{
			OFFSET	 0.000000	 0.000000	 0.570047
			CHANNELS 3 Zrotation Xrotation Yrotation
			JOINT RightFoot
			{
				OFFSET	 0.000000	 0.000000	 0.544354
				CHANNELS 3 Zrotation Xrotation Yrotation
				JOINT RightToeBase
				{
					OFFSET	 0.000000	 0.000000	 0.207540
					CHANNELS 3 Zrotation Xrotation Yrotation
					End Site
					{
						OFFSET	 0.000000	 0.000000	 0.207540
					}
				}
			}
		}
	}
	JOINT Spine
	{
		OFFSET	 0.000184	-0.007763	 0.117403
		CHANNELS 3 Zrotation Xrotation Yrotation
		JOINT Spine1
		{
			OFFSET	 0.000000	 0.000000	 0.137269
			CHANNELS 3 Zrotation Xrotation Yrotation
			JOINT Spine2
			{
				OFFSET	 0.000000	 0.000000	 0.156879
				CHANNELS 3 Zrotation Xrotation Yrotation
				JOINT LeftShoulder
				{
					OFFSET	 0.080501	-0.002496	 0.160144
					CHANNELS 3 Zrotation Xrotation Yrotation
					JOINT LeftArm
					{
						OFFSET	 0.000000	 0.000000	 0.164363
						CHANNELS 3 Zrotation Xrotation Yrotation
						JOINT LeftForeArm
						{
							OFFSET	 0.000000	 0.000000	 0.364576
							CHANNELS 3 Zrotation Xrotation Yrotation
							JOINT LeftHand
							{
								OFFSET	 0.000000	 0.000000	 0.360812
								CHANNELS 3 Zrotation Xrotation Yrotation
								JOINT LeftHandIndex1
								{
									OFFSET	 0.000000	 0.000000	 0.086006
									CHANNELS 3 Zrotation Xrotation Yrotation
									JOINT LeftHandIndex2
									{
										OFFSET	 0.000000	 0.000000	 0.047236
										CHANNELS 3 Zrotation Xrotation Yrotation
										JOINT LeftHandIndex3
										{
											OFFSET	-0.004284	-0.000551	 0.038166
											CHANNELS 3 Zrotation Xrotation Yrotation
											End Site
											{
												OFFSET	-0.004284	-0.000551	 0.038166
											}
										}
									}
								}
							}
						}
					}
				}
				JOINT Neck
				{
					OFFSET	 0.000000	 0.000000	 0.176489
					CHANNELS 3 Zrotation Xrotation Yrotation
					JOINT Head
					{
						OFFSET	 0.000000	-0.001747	 0.077940
						CHANNELS 3 Zrotation Xrotation Yrotation
						End Site
						{
							OFFSET	 0.000000	-0.001747	 0.077940
						}
					}
				}
				JOINT RightShoulder
				{
					OFFSET	-0.080363	 0.000306	 0.159706
					CHANNELS 3 Zrotation Xrotation Yrotation
					JOINT RightArm
					{
						OFFSET	 0.000000	 0.000000	 0.164196
						CHANNELS 3 Zrotation Xrotation Yrotation
						JOINT RightForeArm
						{
							OFFSET	 0.000000	 0.000000	 0.365611
							CHANNELS 3 Zrotation Xrotation Yrotation
							JOINT RightHand
							{
								OFFSET	 0.000000	 0.000000	 0.360648
								CHANNELS 3 Zrotation Xrotation Yrotation
								JOINT RightHandIndex1
								{
									OFFSET	 0.000000	 0.000000	 0.069977
									CHANNELS 3 Zrotation Xrotation Yrotation
									JOINT RightHandIndex2
									{
										OFFSET	 0.000000	 0.000000	 0.052305
										CHANNELS 3 Zrotation Xrotation Yrotation
										JOINT RightHandIndex3
										{
											OFFSET	 0.009002	-0.000782	 0.042196
											CHANNELS 3 Zrotation Xrotation Yrotation
											End Site
											{
												OFFSET	 0.009002	-0.000782	 0.042196
											}
										}
									}
								}
							}
						}
					}
				}
			}
		}
	}
}
MOTION
Frames:    7
Frame Time: 0.03333334
-4.197025	-21.741270	 1.023494	-23.958780	 9.451450	 3.103984	 5.610029	-20.639070	 175.438600	-4.268283	-36.320460	-1.007126	-1.176864	 83.512210	-0.504859	-2.333157	 36.520440	-0.185994	-1.987656	-22.625250	-178.947600	-2.014808	-40.412250	-0.965865	-1.518336	 86.984030	 0.732260	 2.392757	 26.340240	-0.043740	-5.489020	 5.372817	-1.469355	-9.016979	 3.837422	-2.065171	-11.123290	 1.195485	-0.621850	-101.538200	 88.592500	-167.536600	 54.639300	 68.107850	-64.563720	-4.893609	-4.313796	-17.809630	 5.514174	-25.664690	-5.888296	-2.036846	-11.167580	 7.084038	-5.213516	-0.193813	 3.566525	-1.378229	 35.397820	-2.634230	 0.711326	 1.303896	 0.642715	-2.481885	 2.574512	 0.505988	 96.591130	 87.893920	 170.255200	-50.749400	 75.761490	 64.144070	-2.069641	-12.764760	 23.264250	-21.676480	-26.353650	 10.672030	-7.427188	-4.200671	-37.113850	 5.070815	-0.697434	-9.399699	-2.350882	 35.473990	 5.254307
-4.199567	-21.743680	 1.025367	-23.869460	 9.146640	 3.005866	 5.483291	-20.289510	 175.393000	-4.325090	-36.484860	-1.125715	-1.267603	 83.653380	-0.569572	-2.329392	 36.937770	-0.196389	-1.773887	-21.850540	-178.976100	-1.941965	-39.600670	-0.802423	-1.516144	 86.495080	 0.898798	 2.395103	 25.635700	-0.058518	-5.650624	 5.413399	-1.452392	-9.055126	 4.052833	-2.034271	-11.052820	 1.374333	-0.600632	-101.181500	 88.606190	-168.019900	 53.746330	 68.341190	-63.456190	-4.805215	-4.257013	-17.085340	 5.787989	-25.758620	-5.890132	-2.875506	-11.585280	 5.105821	-5.213516	-0.193813	 3.566525	-1.378229	 35.397820	-2.634230	 0.770027	 1.472689	 0.704868	-2.370228	 2.861658	 0.638386	 96.750120	 87.930950	 170.092000	-51.773930	 75.652290	 64.991090	-2.353724	-12.692890	 23.134550	-21.686370	-26.426490	 10.684470	-7.360688	-4.248628	-36.907060	 5.070815	-0.697434	-9.399699	-2.350882	 35.473990	 5.254307
-4.202477	-21.746000	 1.025012	-23.607980	 8.973019	 2.889239	 5.370401	-20.037720	 175.368200	-4.257963	-36.494040	-1.152238	-1.324983	 83.766780	-0.552874	-2.326732	 37.224570	-0.203586	-1.721496	-20.814150	-178.977600	-1.650421	-38.344580	-0.602218	-1.330709	 86.413350	 0.965467	 2.394285	 25.887470	-0.053251	-5.884226	 5.294343	-1.449915	-9.162024	 4.250828	-2.007094	-11.042960	 1.593169	-0.578991	-100.735200	 88.615770	-168.605500	 53.226000	 68.576910	-62.786350	-4.759028	-4.218209	-16.548910	 6.031300	-25.866500	-5.894938	-3.498756	-11.839640	 3.653641	-5.213516	-0.193813	 3.566525	-1.378229	 35.397820	-2.634230	 0.758359	 1.612972	 0.787603	-2.291860	 3.222010	 0.608375	 96.963140	 87.976960	 169.871300	-52.361790	 75.658910	 65.312430	-2.504181	-12.636950	 23.071480	-21.670170	-26.515000	 10.701180	-7.289330	-4.222457	-36.743790	 5.070815	-0.697434	-9.399699	-2.350882	 35.473990	 5.254307
-4.206918	-21.748890	 1.024877	-23.183990	 8.875441	 2.756892	 5.169117	-19.704930	 175.324200	-4.100866	-36.366860	-1.167570	-1.393085	 83.787380	-0.518028	-2.323578	 37.557950	-0.212003	-1.916460	-19.480210	-179.092600	-1.150285	-36.515170	-0.440802	-1.404148	 86.500160	 1.290774	 2.390571	 26.942440	-0.030997	-6.247706	 5.062432	-1.526721	-9.313437	 4.482468	-1.966723	-11.055720	 1.903318	-0.549712	-99.896540	 88.582660	-169.609500	 52.737780	 68.986910	-62.250940	-4.862313	-4.174790	-15.959050	 6.342242	-26.052770	-5.911536	-3.324623	-11.942740	 4.054862	-5.213516	-0.193813	 3.566525	-1.378229	 35.397820	-2.634230	 0.727228	 1.794370	 0.937394	-2.214108	 3.755657	 0.524262	 97.446840	 88.079700	 169.381100	-52.854090	 75.745900	 65.335260	-2.624661	-12.552380	 23.026180	-21.609100	-26.680160	 10.734370	-7.185719	-4.122778	-36.552510	 5.070815	-0.697434	-9.399699	-2.350882	 35.473990	 5.254307
-4.211250	-21.750620	 1.025081	-23.073230	 8.847345	 3.026802	 4.961890	-19.382650	 174.889600	-4.055439	-36.063740	-1.266459	-1.463330	 83.581830	-0.605642	-2.322212	 37.700050	-0.215607	-2.242394	-18.723260	-179.594700	-1.128975	-35.237930	-0.657267	-1.669922	 86.374260	 1.271157	 2.394867	 25.710800	-0.056949	-6.526038	 4.936342	-2.020988	-9.288035	 4.605409	-2.028910	-11.033820	 2.089409	-0.530677	-98.885480	 88.436140	-170.663500	 52.474160	 69.592250	-62.290460	-5.254534	-4.189481	-15.651760	 6.712293	-26.311420	-5.939594	-3.252228	-11.998830	 4.220948	-5.213516	-0.193813	 3.566525	-1.378229	 35.397820	-2.634230	 0.792692	 1.992676	 1.098874	-2.201767	 4.082932	 0.636223	 98.273890	 88.259540	 168.597000	-53.236260	 75.832500	 65.308680	-2.651536	-12.442330	 23.020820	-21.486180	-26.919030	 10.783280	-7.091654	-3.956984	-36.434630	 5.070815	-0.697434	-9.399699	-2.350882	 35.473990	 5.254307
-4.214388	-21.751870	 1.025442	-23.560720	 8.888190	 3.309753	 4.905940	-19.109230	 174.725400	-4.255667	-35.646490	-1.402784	-1.504582	 83.315550	-0.791590	-2.322856	 37.633370	-0.213917	-2.428894	-18.414090	-179.867000	-1.572914	-34.658110	-1.034008	-2.173897	 86.092600	 1.221058	 2.397685	 24.775860	-0.076413	-6.622568	 4.761357	-2.340432	-9.075170	 4.665437	-2.091127	-10.971000	 2.202965	-0.516750	-98.760940	 88.371650	-170.721600	 52.210490	 70.223350	-62.085610	-6.029557	-4.177767	-15.875950	 6.625523	-26.592970	-5.985843	-3.637491	-12.481370	 3.328111	-5.213516	-0.193813	 3.566525	-1.378229	 35.397820	-2.634230	 0.946818	 2.217160	 1.139334	-2.235881	 4.133790	 0.648826	 98.295140	 88.327900	 168.701600	-53.295190	 75.854350	 65.157620	-2.672236	-12.352860	 23.029790	-21.408040	-27.197960	 10.839700	-7.024474	-3.795506	-36.382470	 5.070815	-0.697434	-9.399699	-2.350882	 35.473990	 5.254307
-4.216932	-21.752620	 1.025917	-24.233590	 8.900742	 3.007640	 5.013207	-18.649750	 174.999200	-4.576024	-35.100450	-1.485566	-1.549515	 83.052200	-0.919316	-2.324145	 37.499590	-0.210517	-2.466547	-18.510840	-179.593400	-1.881710	-34.455230	-1.210996	-2.528579	 86.052250	 1.316342	 2.397453	 24.855150	-0.074768	-6.753150	 4.609605	-1.939396	-8.892840	 4.725729	-1.920741	-10.916460	 2.353854	-0.499764	-99.150610	 88.408610	-170.269000	 52.741110	 70.348240	-62.371810	-6.945365	-4.055995	-16.804980	 5.714855	-26.925590	-6.059414	-3.883529	-13.007140	 2.765919	-5.213516	-0.193813	 3.566525	-1.378229	 35.397820	-2.634230	 1.069826	 2.249342	 1.033741	-2.248622	 4.300355	 0.423123	 97.730550	 88.285370	 169.372300	-53.032300	 75.805750	 64.856500	-2.710337	-12.273710	 23.041670	-21.376290	-27.542900	 10.910650	-6.978336	-3.669477	-36.357980	 5.070815	-0.697434	-9.399699	-2.350882	 35.473990	 5.254307
